# xmcd
#
# Track frame offsets:
#  150
#  10752
#  26552
#  41657
#  55795
#  67967
#  78085
#  95890
#  108050
#  120395
#  135267
#
# Disc length: 2054 seconds
#
# Revision: 0
# Processed by: cddbd v1.5.1PL2 Copyright (c) Steve Scherf et al.
# Submitted via: Collectorz.com_Music_Collector 6.11
#
DISCID=7b08040b
DTITLE=Albert King - Years Gone By
DYEAR=1989
DGENRE=Blues
TTITLE0=Wrapped Up In Love Again
TTITLE1=You Don't Love Me (instrumental)
TTITLE2=Cockroach
TTITLE3=Killing Floor
TTITLE4=Lonely Man
TTITLE5=If The Washing Don't Get You, The Rinsing Will
TTITLE6=Drowning On Dry Land
TTITLE7=Drowning On Dry Land (instrumental)
TTITLE8=Heart Fixing Business
TTITLE9=You Threw Your Love On Me Too Strong
TTITLE10=Sky Is Crying
EXTD=
EXTT0=
EXTT1=
EXTT2=
EXTT3=
EXTT4=
EXTT5=
EXTT6=
EXTT7=
EXTT8=
EXTT9=
EXTT10=
PLAYORDER=
